<?xml version="1.0" standalone="no"?>
<!DOCTYPE svg PUBLIC "-//W3C//DTD SVG 20010904//EN"
 "http://www.w3.org/TR/2001/REC-SVG-20010904/DTD/svg10.dtd">
<svg version="1.0" xmlns="http://www.w3.org/2000/svg"
 width="1280.000000pt" height="1087.000000pt" viewBox="0 0 1280.000000 1087.000000"
 preserveAspectRatio="xMidYMid meet">
<metadata>
Created by potrace 1.15, written by Peter Selinger 2001-2017
</metadata>
<g transform="translate(0.000000,1087.000000) scale(0.100000,-0.100000)"
fill="#03a9f4" stroke="none">
<path d="M3519 10823 c-28 -26 -78 -86 -112 -133 -89 -125 -145 -188 -201
-229 -31 -22 -111 -112 -221 -251 -196 -245 -255 -313 -403 -460 -208 -208
-317 -358 -467 -640 -109 -205 -208 -355 -321 -485 -117 -135 -161 -205 -269
-429 -156 -323 -234 -534 -365 -991 -163 -568 -245 -765 -447 -1069 -143 -215
-228 -286 -514 -431 -113 -57 -150 -81 -154 -98 -14 -63 -36 -337 -41 -527
-20 -688 117 -1344 395 -1895 79 -156 196 -345 213 -345 5 0 73 35 151 79 555
309 866 413 1322 443 245 16 369 4 606 -56 96 -25 213 -48 260 -51 110 -9 262
14 388 59 353 125 660 237 876 318 312 119 405 149 575 189 349 81 425 101
565 150 165 58 170 62 280 204 75 98 116 185 170 365 71 237 100 313 213 552
78 164 114 273 116 346 1 59 -1 65 -30 90 -17 15 -39 32 -49 37 -16 10 -16 17
14 118 58 203 66 295 55 638 -13 408 17 354 -369 656 -475 371 -678 516 -820
585 l-80 40 -285 -6 c-300 -5 -411 -14 -600 -46 -217 -37 -418 -112 -520 -193
-24 -20 -46 -34 -48 -32 -2 2 6 32 19 67 26 74 47 94 349 327 250 193 449 339
573 417 l97 62 103 6 c56 3 215 10 352 16 255 11 398 25 403 40 4 10 10 4 156
-124 213 -187 366 -291 496 -337 84 -30 208 -32 260 -4 59 31 134 91 179 142
52 58 104 157 96 182 -15 48 -162 169 -342 283 -137 86 -206 140 -298 236
-101 105 -188 175 -257 207 -111 50 -379 85 -657 85 -75 0 -185 5 -246 10
-128 13 -165 7 -415 -67 -307 -91 -611 -206 -879 -335 -90 -43 -157 -71 -150
-62 7 9 103 84 213 167 304 228 490 381 607 498 l106 105 104 33 c175 54 328
111 467 172 152 67 211 84 494 138 345 66 420 95 513 192 107 112 136 244 78
350 -16 31 -44 63 -67 78 -38 25 -46 26 -165 25 -89 -1 -183 -10 -321 -33
-107 -17 -260 -36 -339 -41 -112 -9 -164 -17 -240 -42 -132 -42 -310 -113
-545 -220 -461 -207 -610 -299 -1026 -628 -369 -292 -427 -324 -356 -195 74
135 347 487 869 1119 142 171 162 213 161 331 -1 67 -6 104 -23 146 -43 112
-121 199 -179 199 -14 0 -43 -19 -73 -47z m1203 -4105 c180 -141 383 -256 551
-313 l85 -29 17 -71 c65 -270 185 -537 299 -662 27 -30 47 -55 45 -57 -135
-99 -337 -302 -419 -421 -30 -44 -89 -145 -130 -225 l-75 -145 -40 1 c-22 0
-96 8 -163 17 -295 41 -588 11 -895 -90 -43 -14 -79 -24 -81 -22 -1 2 -20 33
-41 69 -96 161 -160 238 -370 445 -134 132 -222 226 -236 254 -44 87 -40 133
42 411 82 280 126 352 284 473 112 85 200 127 335 161 183 47 345 107 518 192
92 45 170 83 174 83 4 1 49 -32 100 -71z"/>
<path d="M12080 7973 c-358 -209 -649 -339 -908 -404 -191 -49 -329 -63 -592
-62 -250 0 -287 4 -490 56 -117 30 -136 32 -295 31 -201 0 -231 -7 -501 -112
-98 -38 -222 -83 -274 -100 -52 -16 -225 -78 -385 -137 -405 -150 -497 -178
-765 -236 -279 -60 -375 -86 -492 -135 l-87 -36 -95 -119 c-103 -128 -148
-212 -191 -354 -54 -180 -89 -274 -177 -470 -123 -275 -160 -383 -162 -468 -1
-66 0 -69 35 -101 20 -18 42 -35 49 -38 12 -4 9 -22 -13 -94 -64 -210 -75
-346 -59 -739 12 -314 -1 -292 331 -548 627 -482 816 -613 932 -645 47 -13
514 2 689 22 325 38 533 102 703 218 33 22 61 37 64 34 3 -2 -5 -34 -17 -70
-25 -76 -27 -79 -300 -288 -339 -260 -625 -460 -702 -492 -22 -9 -117 -18
-278 -25 -370 -17 -587 -40 -600 -62 -3 -4 -75 52 -160 127 -256 223 -408 319
-559 350 -100 20 -157 8 -253 -55 -89 -58 -149 -124 -189 -208 -29 -60 -30
-66 -15 -88 41 -62 164 -161 376 -301 103 -68 169 -122 281 -230 111 -107 163
-150 211 -173 131 -65 350 -89 823 -92 l280 -2 135 36 c151 40 344 102 530
172 161 60 228 89 433 187 92 45 170 78 173 75 3 -2 -86 -74 -198 -158 -312
-235 -534 -414 -638 -518 l-95 -94 -155 -52 c-187 -63 -316 -112 -395 -153
-101 -50 -192 -78 -400 -122 -248 -52 -443 -103 -512 -135 -74 -34 -157 -115
-194 -191 -76 -154 -12 -312 140 -345 64 -13 177 -3 451 41 102 16 244 35 315
40 72 6 164 20 205 31 209 58 809 317 1014 438 183 108 331 215 621 451 226
183 252 203 294 224 94 49 42 -52 -182 -354 -116 -156 -541 -688 -652 -815
-73 -84 -144 -183 -161 -225 -8 -19 -18 -62 -21 -95 -16 -172 117 -387 222
-361 42 11 108 79 186 194 75 108 135 175 201 224 20 15 114 123 210 240 95
117 261 303 369 415 274 282 322 348 513 710 125 239 162 295 290 438 135 152
182 224 272 411 170 354 239 547 404 1123 101 354 141 464 240 666 145 295
303 503 454 599 32 20 132 74 223 119 117 59 165 88 168 102 15 64 36 341 41
535 22 795 -174 1574 -539 2153 -34 53 -66 97 -72 97 -5 -1 -53 -26 -105 -57z
m-3156 -1870 c93 -170 221 -319 487 -569 167 -156 175 -194 99 -470 -86 -312
-114 -374 -202 -461 -65 -63 -193 -155 -270 -194 -31 -16 -126 -49 -211 -73
-201 -58 -307 -100 -500 -198 l-157 -80 -48 44 c-154 144 -458 324 -639 378
-41 13 -42 14 -59 84 -63 259 -187 530 -296 649 l-49 52 38 30 c231 184 390
378 516 630 30 61 63 117 73 126 18 15 31 15 169 -3 118 -15 188 -18 330 -14
206 5 338 28 540 95 66 21 125 39 131 40 6 1 27 -29 48 -66z"/>
</g>
</svg>
